<?xml version="1.0" encoding="UTF-8" standalone="no"?>
<svg
   viewBox="0 0 80.000002 78.94541"
   version="1.1"
   id="svg5"
   sodipodi:docname="大萌字.svg"
   width="80"
   height="78.945412"
   inkscape:version="1.4.2 (f4327f4, 2025-05-13)"
   xmlns:inkscape="http://www.inkscape.org/namespaces/inkscape"
   xmlns:sodipodi="http://sodipodi.sourceforge.net/DTD/sodipodi-0.dtd"
   xmlns="http://www.w3.org/2000/svg"
   xmlns:svg="http://www.w3.org/2000/svg">
  <sodipodi:namedview
     id="namedview5"
     pagecolor="#ffffff"
     bordercolor="#000000"
     borderopacity="0.25"
     inkscape:showpageshadow="2"
     inkscape:pageopacity="0.0"
     inkscape:pagecheckerboard="0"
     inkscape:deskcolor="#d1d1d1"
     inkscape:zoom="8"
     inkscape:cx="26.5"
     inkscape:cy="48.5625"
     inkscape:window-width="2560"
     inkscape:window-height="1417"
     inkscape:window-x="-8"
     inkscape:window-y="-8"
     inkscape:window-maximized="1"
     inkscape:current-layer="svg5" />
  <defs
     id="defs1">
    <style
       id="style1">.cls-1{fill:#129822;}.cls-2{fill:#fff;}</style>
  </defs>
  <g
     id="图层_1_复制_2"
     data-name="图层 1_复制_2"
     transform="matrix(0.1801865,0,0,0.1801865,-4.510331,-4.5136713)">
    <path
       class="cls-1"
       d="m 326.13,164 q -10.69,0 -16.72,-6 a 19.64,19.64 0 0 1 -6,-14.4 33.38,33.38 0 0 1 0.93,-7.66 q 0.93,-3.94 2.79,-10.22 1.86,-6.28 3.25,-10.91 H 190.52 c 0.62,3.09 1.47,6.66 2.55,10.68 1.08,4.02 1.93,7 2.56,8.82 a 34.87,34.87 0 0 1 1.86,9.29 q 0,9.75 -6.51,14.86 a 23.06,23.06 0 0 1 -14.63,5.11 18.64,18.64 0 0 1 -13.7,-5.57 22,22 0 0 1 -5.1,-8.83 c -0.32,-0.3 -0.78,-1.69 -1.4,-4.18 -0.62,-2.49 -1.7,-6.65 -3.25,-12.54 -1.55,-5.89 -3.1,-11.76 -4.64,-17.64 H 47.94 a 19.6,19.6 0 0 1 -14.39,-6 19.64,19.64 0 0 1 -6,-14.4 19.44,19.44 0 0 1 6,-14.63 A 20,20 0 0 1 47.94,74 h 89.64 q -1.4,-6 -2.33,-9.29 a 23.48,23.48 0 0 1 -0.93,-6.5 22.51,22.51 0 0 1 6.51,-15.79 18.05,18.05 0 0 1 12.54,-5.11 q 9.75,0 15.79,6 a 26.93,26.93 0 0 1 5.1,9.28 q 1.86,5.58 3.26,11.15 1.4,5.57 2.32,10.26 h 140.72 c 0.61,-3.72 1.39,-7.35 2.32,-10.92 0.93,-3.57 1.54,-6 1.86,-7.2 q 0.92,-10.2 8.36,-14.86 a 18.55,18.55 0 0 1 11.14,-3.71 22.27,22.27 0 0 1 4.18,0.46 18.61,18.61 0 0 1 13.47,8.83 20.42,20.42 0 0 1 3.25,11.14 v 4.18 L 362.35,74 h 89.17 a 19.8,19.8 0 0 1 20,20 20.2,20.2 0 0 1 -6,14.86 19.13,19.13 0 0 1 -13.94,6 h -99.44 q -6,25.55 -9.76,34.83 a 20.74,20.74 0 0 1 -5.57,10.22 14.48,14.48 0 0 1 -10.68,4.09 z M 47.25,361.66 q -8.14,-30 -8.13,-69.2 0.01,-39.2 7.88,-68.46 8.37,-30.64 29.49,-47.6 21.12,-16.96 57.82,-16.95 41.34,0 61.77,16 20.43,16 26.71,46 6.27,30 6.27,70.36 0,40.36 -7.9,70.13 -7.9,30.64 -29,47.6 -21.1,16.96 -57.82,16.95 -36.69,0 -58,-17.65 -20.96,-17.23 -29.09,-47.18 z m 33.2,-52.72 Q 82.31,347 93,366.3 q 10.69,19.3 41.33,19.27 24.15,0 35.07,-10.91 10.92,-10.91 14.86,-32.05 3.94,-21.12 3.95,-52.47 0.01,-31.35 -2.79,-52.72 -2.79,-19.5 -13.47,-28.56 -10.68,-9.06 -37.62,-9.05 -20.89,0 -31.81,8.35 Q 91.6,216.51 87,232.08 a 165.23,165.23 0 0 0 -6,36 h 62.69 a 20.43,20.43 0 0 1 0,40.86 z m 187.63,69.2 q -1.4,31.59 -1.4,49 0,17.41 0.93,22.52 a 28.85,28.85 0 0 1 0.47,5.58 18.76,18.76 0 0 1 -5.81,13.7 19.87,19.87 0 0 1 -14.63,5.8 q -8.82,0 -14.39,-5.57 a 19.7,19.7 0 0 1 -5.11,-8.36 q -2.34,-7.9 -2.33,-30.65 0.01,-22.75 1.19,-52.71 1.16,-30 3.48,-62.47 3.24,-54.8 9.29,-112.39 1.84,-21.36 3.71,-27.4 a 22.7,22.7 0 0 1 8.36,-12.31 q 6,-4.41 12.08,-4.41 a 15,15 0 0 1 5.57,0.93 q 10.21,-3.24 43.19,-3.25 47.83,0 76.63,8.82 30.18,9.3 43.66,33.67 13.48,24.37 13.47,68.51 0,36.23 -7.44,102.17 -3.25,29.25 -7.66,53.87 -4.41,24.62 -9.52,38.55 a 16.43,16.43 0 0 1 -8.36,10 25.22,25.22 0 0 1 -11.15,3 18.16,18.16 0 0 1 -13.93,-6 20.5,20.5 0 0 1 -5.57,-14.39 c 0,-3.41 0.3,-5.73 0.93,-7 q 5.56,-14.4 12.54,-65.48 5.57,-43.2 8.82,-87.78 1.4,-19 1.39,-29.72 0,-29.27 -8.82,-43.19 -8.82,-13.92 -28.33,-19 Q 349.82,197 316.84,197 a 288.69,288.69 0 0 0 -35.29,1.86 l -5.11,53.4 h 84.06 a 19.84,19.84 0 0 1 20,20 19.66,19.66 0 0 1 -6,14.4 19.13,19.13 0 0 1 -13.93,6 h -87.38 a 101.65,101.65 0 0 1 -0.93,10.22 q -0.48,8.35 -1.86,34.36 h 99.85 a 20.44,20.44 0 0 1 0,40.87 z"
       transform="translate(-2.51,-12.26)"
       id="path5" />
  </g>
</svg>
