<?xml version="1.0" encoding="UTF-8" standalone="no"?>
<svg
   height="96"
   style="line-height:1"
   viewBox="0 0 96 96"
   width="96"
   version="1.1"
   id="svg1"
   sodipodi:docname="bilibili-color.svg"
   inkscape:version="1.4.3 (0d15f75, 2025-12-25)"
   xmlns:inkscape="http://www.inkscape.org/namespaces/inkscape"
   xmlns:sodipodi="http://sodipodi.sourceforge.net/DTD/sodipodi-0.dtd"
   xmlns="http://www.w3.org/2000/svg"
   xmlns:svg="http://www.w3.org/2000/svg"
   xmlns:rdf="http://www.w3.org/1999/02/22-rdf-syntax-ns#"
   xmlns:cc="http://creativecommons.org/ns#"
   xmlns:dc="http://purl.org/dc/elements/1.1/">
  <defs
     id="defs1" />
  <sodipodi:namedview
     id="namedview1"
     pagecolor="#ffffff"
     bordercolor="#000000"
     borderopacity="0.25"
     inkscape:showpageshadow="2"
     inkscape:pageopacity="0.0"
     inkscape:pagecheckerboard="0"
     inkscape:deskcolor="#d1d1d1"
     inkscape:zoom="6.2976698"
     inkscape:cx="45.810595"
     inkscape:cy="63.912529"
     inkscape:window-width="1920"
     inkscape:window-height="1057"
     inkscape:window-x="-8"
     inkscape:window-y="-8"
     inkscape:window-maximized="1"
     inkscape:current-layer="svg1" />
  <title
     id="title1">bilibili</title>
  <path
     clip-rule="evenodd"
     d="M 19.908,14.362812 A 5.24,5.24 0 1 1 27.18,6.8268116 L 38.492,17.738812 c 0.32,0.312 0.596,0.652 0.82,1.016 H 56.42 a 5.28,5.28 0 0 1 0.82,-1.016 L 68.552,6.8268116 a 5.24,5.24 0 0 1 7.272,7.5360004 l -4.544,4.396 h 3.392 A 21.332,21.332 0 0 1 96,40.086811 v 29.36 a 21.332,21.332 0 0 1 -21.332,21.336 H 21.332 A 21.332,21.332 0 0 1 9.375583e-8,69.450811 v -29.364 A 21.332,21.332 0 0 1 21.332,18.754812 h 3.124 l -4.548,-4.396 z m 1.424,14.68 A 10.668,10.668 0 0 0 10.668,39.710811 v 30.116 a 10.668,10.668 0 0 0 10.664,10.664 h 53.336 a 10.668,10.668 0 0 0 10.664,-10.664 v -30.12 A 10.668,10.668 0 0 0 74.668,29.042812 Z m 5.336,20.767999 a 5.332,5.332 0 1 1 10.664,0 v 4.768 a 5.332,5.332 0 1 1 -10.664,0 z M 64,44.478811 c -2.944,0 -5.332,2.388 -5.332,5.332 v 4.768 a 5.332,5.332 0 1 0 10.664,0 v -4.768 c 0,-2.944 -2.388,-5.332 -5.332,-5.332 z"
     fill="#fb7299"
     fill-rule="evenodd"
     id="path1"
     style="stroke-width:4" />
  <metadata
     id="metadata1">
    <rdf:RDF>
      <cc:Work
         rdf:about="">
        <dc:title>bilibili</dc:title>
      </cc:Work>
    </rdf:RDF>
  </metadata>
</svg>
