<?xml version="1.0" encoding="UTF-8" standalone="no"?>
<svg
   height="71.30468"
   style="line-height:1"
   viewBox="0 0 80 71.30468"
   width="80"
   version="1.1"
   id="svg1"
   sodipodi:docname="bilibili-color.svg"
   inkscape:version="1.4.2 (f4327f4, 2025-05-13)"
   xmlns:inkscape="http://www.inkscape.org/namespaces/inkscape"
   xmlns:sodipodi="http://sodipodi.sourceforge.net/DTD/sodipodi-0.dtd"
   xmlns="http://www.w3.org/2000/svg"
   xmlns:svg="http://www.w3.org/2000/svg"
   xmlns:rdf="http://www.w3.org/1999/02/22-rdf-syntax-ns#"
   xmlns:cc="http://creativecommons.org/ns#"
   xmlns:dc="http://purl.org/dc/elements/1.1/">
  <defs
     id="defs1" />
  <sodipodi:namedview
     id="namedview1"
     pagecolor="#ffffff"
     bordercolor="#000000"
     borderopacity="0.25"
     inkscape:showpageshadow="2"
     inkscape:pageopacity="0.0"
     inkscape:pagecheckerboard="0"
     inkscape:deskcolor="#d1d1d1"
     inkscape:zoom="3.1488349"
     inkscape:cx="56.211267"
     inkscape:cy="4.6048778"
     inkscape:window-width="2560"
     inkscape:window-height="1417"
     inkscape:window-x="-8"
     inkscape:window-y="-8"
     inkscape:window-maximized="1"
     inkscape:current-layer="svg1" />
  <title
     id="title1">bilibili</title>
  <path
     clip-rule="evenodd"
     d="m 16.59,7.6213508 a 4.3666667,4.3666667 0 1 1 6.06,-6.2800003 l 9.426667,9.0933335 c 0.266666,0.26 0.496666,0.543334 0.683333,0.846667 H 47.016667 A 4.4,4.4 0 0 1 47.7,10.434684 l 9.426667,-9.0933335 a 4.3666667,4.3666667 0 0 1 6.059999,6.2800003 L 59.4,11.284684 h 2.826666 A 17.776667,17.776667 0 0 1 80,29.058017 v 24.466666 a 17.776667,17.776667 0 0 1 -17.776667,17.78 H 17.776667 A 17.776667,17.776667 0 0 1 0,53.528017 v -24.47 A 17.776667,17.776667 0 0 1 17.776667,11.281351 H 20.38 L 16.59,7.6180178 Z M 17.776667,19.854684 A 8.89,8.89 0 0 0 8.8899999,28.744683 V 53.84135 a 8.89,8.89 0 0 0 8.8866671,8.886667 H 62.223333 A 8.89,8.89 0 0 0 71.11,53.84135 v -25.1 a 8.89,8.89 0 0 0 -8.886667,-8.886666 z m 4.446666,17.306666 a 4.4433335,4.4433335 0 1 1 8.886667,0 v 3.973333 a 4.4433335,4.4433335 0 1 1 -8.886667,0 z m 31.11,-4.443333 c -2.453333,0 -4.443333,1.99 -4.443333,4.443333 v 3.973333 a 4.4433335,4.4433335 0 1 0 8.886667,0 V 37.16135 c 0,-2.453333 -1.99,-4.443333 -4.443334,-4.443333 z"
     fill="#fb7299"
     fill-rule="evenodd"
     id="path1"
     style="stroke-width:3.33333" />
  <metadata
     id="metadata1">
    <rdf:RDF>
      <cc:Work
         rdf:about="">
        <dc:title>bilibili</dc:title>
      </cc:Work>
    </rdf:RDF>
  </metadata>
</svg>
