<?xml version="1.0" encoding="UTF-8" standalone="no"?>
<svg
   fill="#0f88eb"
   height="89.773895"
   viewBox="0 0.529 91.624997 89.773889"
   width="91.625"
   version="1.1"
   id="svg1"
   sodipodi:docname="zhihu-logo.svg"
   inkscape:version="1.4.2 (f4327f4, 2025-05-13)"
   xmlns:inkscape="http://www.inkscape.org/namespaces/inkscape"
   xmlns:sodipodi="http://sodipodi.sourceforge.net/DTD/sodipodi-0.dtd"
   xmlns="http://www.w3.org/2000/svg"
   xmlns:svg="http://www.w3.org/2000/svg">
  <defs
     id="defs1" />
  <sodipodi:namedview
     id="namedview1"
     pagecolor="#ffffff"
     bordercolor="#000000"
     borderopacity="0.25"
     inkscape:showpageshadow="2"
     inkscape:pageopacity="0.0"
     inkscape:pagecheckerboard="0"
     inkscape:deskcolor="#d1d1d1"
     inkscape:zoom="3.8656"
     inkscape:cx="119.12769"
     inkscape:cy="-2.9749586"
     inkscape:window-width="2560"
     inkscape:window-height="1417"
     inkscape:window-x="-8"
     inkscape:window-y="-8"
     inkscape:window-maximized="1"
     inkscape:current-layer="svg1" />
  <path
     d="m 53.29,80.035 7.32,0.002 2.41,8.24 13.128,-8.24 H 91.625 V 12.057 H 53.29 Z m 7.79,-60.598 h 22.756 v 53.22 h -8.73 l -8.718,5.473 -1.587,-5.46 -3.72,-0.012 V 19.438 Z M 46.818,43.162 h -16.35 c 0.545,-8.467 0.687,-16.12 0.687,-22.955 h 15.987 c 0,0 0.615,-7.05 -2.68,-6.97 H 16.807 c 1.09,-4.1 2.46,-8.332 4.1,-12.708 0,0 -7.523,0 -10.085,6.74 -1.06,2.78 -4.128,13.48 -9.592,24.41 1.84,-0.2 7.927,-0.37 11.512,-6.94 0.66,-1.84 0.785,-2.08 1.605,-4.54 h 9.02 c 0,3.28 -0.374,20.9 -0.526,22.95 H 6.51 c -3.67,0 -4.863,7.38 -4.863,7.38 H 22.14 C 20.765,66.11 13.385,79.24 0,89.62 c 6.403,1.828 12.784,-0.29 15.937,-3.094 0,0 7.182,-6.53 11.12,-21.64 L 43.92,85.18 c 0,0 2.473,-8.402 -0.388,-12.496 -2.37,-2.788 -8.768,-10.33 -11.496,-13.064 l -4.57,3.627 c 1.363,-4.368 2.183,-8.61 2.46,-12.71 H 49.19 c 0,0 -0.027,-7.38 -2.372,-7.38 z"
     id="path1"
     sodipodi:nodetypes="ccccccccccccccccccccccccccccccsccccccccccccc" />
</svg>
