<?xml version="1.0" encoding="UTF-8" standalone="no"?>
<svg
   fill="#0f88eb"
   height="78.383751"
   viewBox="0 0.529 79.999997 78.383745"
   width="80"
   version="1.1"
   id="svg1"
   sodipodi:docname="zhihu-logo.svg"
   inkscape:version="1.4.2 (f4327f4, 2025-05-13)"
   xmlns:inkscape="http://www.inkscape.org/namespaces/inkscape"
   xmlns:sodipodi="http://sodipodi.sourceforge.net/DTD/sodipodi-0.dtd"
   xmlns="http://www.w3.org/2000/svg"
   xmlns:svg="http://www.w3.org/2000/svg">
  <defs
     id="defs1" />
  <sodipodi:namedview
     id="namedview1"
     pagecolor="#ffffff"
     bordercolor="#000000"
     borderopacity="0.25"
     inkscape:showpageshadow="2"
     inkscape:pageopacity="0.0"
     inkscape:pagecheckerboard="0"
     inkscape:deskcolor="#d1d1d1"
     inkscape:zoom="3.8656"
     inkscape:cx="118.99834"
     inkscape:cy="-2.9749586"
     inkscape:window-width="2560"
     inkscape:window-height="1417"
     inkscape:window-x="-8"
     inkscape:window-y="-8"
     inkscape:window-maximized="1"
     inkscape:current-layer="svg1" />
  <path
     d="m 46.528786,69.947608 6.391269,0.0017 2.104229,7.194543 11.462374,-7.194543 H 80 V 10.594375 H 46.528786 Z m 6.801637,-52.909577 h 19.868813 v 46.467667 h -7.622374 l -7.611896,4.778609 -1.385648,-4.767258 -3.248022,-0.01048 V 17.038905 Z M 40.877926,37.752902 H 26.602347 c 0.475852,-7.392742 0.599836,-14.074761 0.599836,-20.042565 h 13.958636 c 0,0 0.536971,-6.155525 -2.339973,-6.085675 H 14.674598 C 15.626303,8.0448527 16.822483,4.3497913 18.254407,0.529 c 0,0 -6.568513,0 -8.8054575,5.8848568 C 8.5234379,8.8411419 5.844693,18.18357 1.0739427,27.726817 2.6804911,27.552192 7.9951978,27.403761 11.125348,21.667336 11.70161,20.060787 11.81075,19.851237 12.526712,17.703352 h 7.87558 c 0,2.863847 -0.326548,18.248295 -0.459263,20.038199 H 5.6840382 c -3.2043656,0 -4.2460027,6.443656 -4.2460027,6.443656 H 19.330969 C 18.130423,57.789355 11.686767,69.253475 0,78.316503 c 5.5906139,1.596071 11.162019,-0.253206 13.91498,-2.701446 0,0 6.270777,-5.7015 9.70914,-18.894406 l 14.723493,17.719181 c 0,0 2.159236,-7.335989 -0.338773,-10.910559 C 35.939536,61.095003 30.353288,54.5099 27.971405,52.122779 L 23.981228,55.2896 c 1.190068,-3.813806 1.90603,-7.517599 2.147885,-11.097408 h 16.819864 c 0,0 -0.02358,-6.443656 -2.071051,-6.443656 z"
     id="path1"
     sodipodi:nodetypes="ccccccccccccccccccccccccccccccsccccccccccccc"
     style="stroke-width:0.873124" />
</svg>
